<svg width="1006" height="989" viewBox="0 0 1006 989" fill="none" xmlns="http://www.w3.org/2000/svg">
<path d="M280.826 461.075C269.428 463.811 254.686 468.674 239.639 475.969C224.593 483.265 213.955 490.712 205.14 497.703C139.94 353.321 72.3087 207.724 6.80503 63.3418C-2.92174 41.9126 6.65305 16.5318 28.0823 6.80503C49.5116 -2.92174 74.8924 6.65305 84.6191 28.0823L280.978 461.075H280.826Z" fill="#B7AA66" stroke="#B7AA66" stroke-width="5" stroke-linejoin="round"/>
<path d="M567.146 985.557L479.453 986.165L921.869 32.1821C931.748 10.7528 957.28 1.482 978.558 11.5127C999.835 21.5435 1008.95 46.9242 998.923 68.2015L566.994 985.557H567.146Z" fill="#B7AA66" stroke="#B7AA66" stroke-width="5" stroke-linejoin="round"/>
<path d="M344.502 752.116C379.335 752.116 407.574 723.877 407.574 689.044C407.574 654.21 379.335 625.972 344.502 625.972C309.668 625.972 281.43 654.21 281.43 689.044C281.43 723.877 309.668 752.116 344.502 752.116Z" fill="#B7AA66"/>
<path d="M344.494 834.491C424.822 834.491 489.94 769.372 489.94 689.045C489.94 608.718 424.822 543.6 344.494 543.6C264.167 543.6 199.049 608.718 199.049 689.045C199.049 769.372 264.167 834.491 344.494 834.491Z" stroke="#B7AA66" stroke-width="4" stroke-miterlimit="10"/>
</svg>
