<svg width="2000" height="218" viewBox="0 0 2000 218" fill="none" xmlns="http://www.w3.org/2000/svg">
<path d="M66.5695 115.254L50.3704 122.604L0.792121 13.0903C-1.23277 8.62361 0.760486 3.33325 5.22158 1.30581C9.68268 -0.721628 14.9664 1.27413 16.9913 5.74084L66.5695 115.254Z" fill="#A68B58"/>
<path d="M117.447 205.311L99.1914 205.438L191.292 6.55866C193.349 2.09196 198.664 0.159555 203.094 2.25035C207.523 4.34115 209.422 9.6315 207.333 14.0665L117.415 205.28L117.447 205.311Z" fill="#A68B58"/>
<path d="M258.338 208.668L236.918 209.08L331.044 0L352.021 0.823648L258.338 208.668Z" fill="#A68B58"/>
<path d="M423.928 208.668L445.315 209.08L351.221 0L330.213 0.823648L423.928 208.668Z" fill="#A68B58"/>
<path d="M75.14 161.084C82.3916 161.084 88.2701 155.198 88.2701 147.938C88.2701 140.677 82.3916 134.791 75.14 134.791C67.8884 134.791 62.0098 140.677 62.0098 147.938C62.0098 155.198 67.8884 161.084 75.14 161.084Z" fill="#A68B58"/>
<path d="M777.22 5.13281H756.75V152.883H777.22V5.13281Z" fill="#A68B58"/>
<path d="M997.607 21.2891H977.137V211.647H997.607V21.2891Z" fill="#A68B58"/>
<path d="M1162.39 4.59668H1141.92V211.649H1162.39V4.59668Z" fill="#A68B58"/>
<path d="M897.86 197.073H756.75V217.031H897.86V197.073Z" fill="#A68B58"/>
<path d="M1413.76 5.13281H1393.29V152.883H1413.76V5.13281Z" fill="#A68B58"/>
<path d="M1534.4 197.073H1393.29V217.031H1534.4V197.073Z" fill="#A68B58"/>
<path d="M1653.96 5.13281H1633.49V152.883H1653.96V5.13281Z" fill="#A68B58"/>
<path d="M1774.6 197.073H1633.49V217.031H1774.6V197.073Z" fill="#A68B58"/>
<path d="M1074.09 5.38281H900.672V21.5707H1074.09V5.38281Z" fill="#A68B58"/>
<path d="M1287.17 3.76758H1142.99V22.363H1287.17V3.76758Z" fill="#A68B58"/>
<path d="M1274.71 99.2197H1198.77V117.815H1274.71V99.2197Z" fill="#A68B58"/>
<path d="M1291.28 195.968H1142.01V214.563H1291.28V195.968Z" fill="#A68B58"/>
<path d="M1871.1 4.59668H1850.63V211.649H1871.1V4.59668Z" fill="#A68B58"/>
<path d="M1995.89 3.76758H1851.71V22.363H1995.89V3.76758Z" fill="#A68B58"/>
<path d="M1983.41 99.2197H1907.48V117.815H1983.41V99.2197Z" fill="#A68B58"/>
<path d="M2000 195.968H1850.73V214.563H2000V195.968Z" fill="#A68B58"/>
<path d="M607.471 215.896H583.521C543.244 215.896 510.498 183.076 510.498 142.781V4.18652H529.481V142.749C529.481 172.591 553.717 196.857 583.521 196.857H607.471C637.275 196.857 661.542 172.591 661.542 142.749V4.97849H680.526V142.749C680.526 183.076 647.748 215.864 607.471 215.864V215.896Z" fill="#A68B58"/>
</svg>
